<svg id="Emoji" xmlns="http://www.w3.org/2000/svg" viewBox="0 0 413.5 407.5">
<style>.cls-1{fill:#fcea2b;}</style>

<g id="Relleno"><path class="cls-1" d="M260,70C158,70,75,153,75,255s83,185,185,185,185-83,185-185S362,70,260,70Z" transform="translate(-39.51 -45.29)"/></g>

<g id="Contorno"><path d="M248.76,45.3a208.16,208.16,0,0,1,76.62,15.25,205.05,205.05,0,0,1,110.94,107.3,199.55,199.55,0,0,1,12.23,38,204.28,204.28,0,0,1-54.2,185.33,206.22,206.22,0,0,1-145.59,61.65,207.5,207.5,0,0,1-174.2-90.84,202.76,202.76,0,0,1-31.35-75.52,211.85,211.85,0,0,1-3.7-40.88A199.3,199.3,0,0,1,57,166.1a201.63,201.63,0,0,1,47.12-65.23,209.77,209.77,0,0,1,67.47-41.71A212.18,212.18,0,0,1,248.76,45.3Zm0,2a187.64,187.64,0,0,0-75.31,16.42A191.57,191.57,0,0,0,140.17,83a193.81,193.81,0,0,0-28.52,25.42,197.92,197.92,0,0,0-39.3,64,200.83,200.83,0,0,0-12.84,73.07,195.07,195.07,0,0,0,55.36,133.89,190.43,190.43,0,0,0,61,42,187.38,187.38,0,0,0,35.61,11.28A192.93,192.93,0,0,0,443,245.54,195.95,195.95,0,0,0,358.66,81.05a193.31,193.31,0,0,0-34-18.71A191,191,0,0,0,248.76,47.3Z" transform="translate(-39.51 -45.29)"/></g>

<g id="Cara_Malo" data-name="Cara Malo">
    
    <g id="BocaDead">
    
    <g id="Boca"><path d="M355,317.14c-16.84-2-33.58-3.68-50.33-4.32a393.38,393.38,0,0,0-50.12,1.26,440.13,440.13,0,0,0-49.6,7.59c-16.43,3.44-32.73,7.69-49.14,11.95a319.72,319.72,0,0,1,47.86-17.26,284.88,284.88,0,0,1,50.25-9.25,272.81,272.81,0,0,1,101.08,10Z" transform="translate(-39.51 -45.29)"/></g></g>

<g id="DeadEyes02"><path d="M366.67,145.73A186.43,186.43,0,0,1,352.76,173q-7.85,13-16.87,25.09t-19.11,23.42a185.31,185.31,0,0,1-22.11,21.21,184.64,184.64,0,0,1,13.9-27.3q7.85-13,16.89-25.08t19.12-23.41A186.64,186.64,0,0,1,366.67,145.73Z" transform="translate(-39.51 -45.29)"/><path d="M293.17,151.23A181.93,181.93,0,0,1,316.1,171q10.61,10.59,20.08,22.11T354.11,217a179,179,0,0,1,15.06,26.26,181.33,181.33,0,0,1-22.94-19.75q-10.61-10.59-20.07-22.12t-17.91-23.89A183.24,183.24,0,0,1,293.17,151.23Z" transform="translate(-39.51 -45.29)"/></g>

<g id="DeadEyes01"><path d="M151,143a187.44,187.44,0,0,1,22.09,21.21q10.16,11.28,19.13,23.42T209.1,212.7A185.14,185.14,0,0,1,223,240a185.14,185.14,0,0,1-22.1-21.2q-10.16-11.28-19.12-23.43t-16.87-25.08A187.54,187.54,0,0,1,151,143Z" transform="translate(-39.51 -45.29)"/><path d="M224.5,148.5a183,183,0,0,1-15.07,26.24q-8.4,12.42-17.92,23.9t-20.07,22.12A180.56,180.56,0,0,1,148.5,240.5a181.34,181.34,0,0,1,15.06-26.26q8.4-12.41,17.93-23.88t20.08-22.1A182.83,182.83,0,0,1,224.5,148.5Z" transform="translate(-39.51 -45.29)"/></g></g></svg>