<svg id="Emoji" xmlns="http://www.w3.org/2000/svg" viewBox="0 0 456.26 407.5"><defs><style>.cls-1{fill:#fcea2b;}.cls-2{fill:#f0f;}.cls-3{fill:#fff;}.cls-4{fill:aqua;}</style></defs><g id="Relleno"><path class="cls-1" d="M260,70C158,70,75,153,75,255s83,185,185,185,185-83,185-185S362,70,260,70Z" transform="translate(-16.48 -45.29)"/></g><g id="Contorno"><path d="M248.76,45.3a208.16,208.16,0,0,1,76.62,15.25,205.05,205.05,0,0,1,110.94,107.3,199.55,199.55,0,0,1,12.23,38,204.28,204.28,0,0,1-54.2,185.33,206.22,206.22,0,0,1-145.59,61.65,207.5,207.5,0,0,1-174.2-90.84,202.76,202.76,0,0,1-31.35-75.52,211.85,211.85,0,0,1-3.7-40.88A199.3,199.3,0,0,1,57,166.1a201.63,201.63,0,0,1,47.12-65.23,209.77,209.77,0,0,1,67.47-41.71A212.18,212.18,0,0,1,248.76,45.3Zm0,2a187.64,187.64,0,0,0-75.31,16.42A191.57,191.57,0,0,0,140.17,83a193.81,193.81,0,0,0-28.52,25.42,197.92,197.92,0,0,0-39.3,64,200.83,200.83,0,0,0-12.84,73.07,195.07,195.07,0,0,0,55.36,133.89,190.43,190.43,0,0,0,61,42,187.38,187.38,0,0,0,35.61,11.28A192.93,192.93,0,0,0,443,245.54,195.95,195.95,0,0,0,358.66,81.05a193.31,193.31,0,0,0-34-18.71A191,191,0,0,0,248.76,47.3Z" transform="translate(-16.48 -45.29)"/></g><g id="CaraExcelente"><g id="BocaAbierta"><path id="Fondo" d="M374,317c0,35.07-43.92,86-117,88-72,2-107-51.93-107-87s49.25-3,110-3S374,281.93,374,317Z" transform="translate(-16.48 -45.29)"/><path id="Lengua" class="cls-2" d="M300,385c0,6.9-16.66,16-44,16s-56-9.1-56-16,31.16-13,58.5-13S300,378.1,300,385Z" transform="translate(-16.48 -45.29)"/><path id="Dientes" class="cls-3" d="M355.2,309.87c-13.41,25.33-53,48.19-97,48.19-44.26,0-81.68-22.55-94-47.86C177,301,214,319.61,257.79,319.61,302.26,319.61,342.23,299.77,355.2,309.87Z" transform="translate(-16.48 -45.29)"/></g><g id="OjoEstrella02"><polygon class="cls-4" points="226.91 198.15 152.11 186.63 100.21 241.71 88.06 167.01 19.63 134.67 86.92 100.03 96.53 24.96 150.27 78.25 224.63 64.2 190.56 131.77 226.91 198.15"/><path d="M243.8,243.73c-6-.73-12-1.4-18.12-2l-18.74-1.81c-6.35-.61-12.8-1.19-19.32-1.87s-13.07-1.43-19.63-2.21l3.49-1.2L159,248.89l-12.56,14.16-25.16,28.3-8.49,9.55L110.44,288l-6.87-37.22-3.43-18.62c-1.16-6.2-2.23-12.41-3.33-18.62l4.38,5.82L66.78,203.64l-17.21-7.86c-5.75-2.61-11.45-5.3-17.17-8l-15.92-7.44,15.66-8.14,67.15-34.91-4.81,6.85,9.93-75,2.3-17.42,12.41,12.36q6.7,6.68,13.33,13.43L145.72,91l26.53,27-6.95-2.13c6.21-1.1,12.42-2.19,18.65-3.21l18.66-3.13,37.33-6.25,12.88-2.16-6.06,11.21-18,33.3-9,16.63-9.14,16.58-.06-3.67q4.44,8.85,8.77,17.7c2.86,5.89,5.61,11.75,8.35,17.52l8.1,17C238.39,232.93,241.07,238.36,243.8,243.73Zm-.82-.57c-12.25-22-24.43-43.85-36.47-65.81l-.15-.27.14-.29,34-67.62.76,1L166.9,124.33l-.41.08-.3-.3L112.38,70.89l1.53-.52-9.52,75.08-.06.52-.47.24L36.53,180.76l0-1.61,68.38,32.43.38.18.07.41,12,74.72-1.2-.37,52-55,.22-.23.31,0C193.43,235.15,218.08,239.16,243,243.16Z" transform="translate(-16.48 -45.29)"/></g><g id="OjoEstrella01"><polygon class="cls-4" points="269.68 195.11 333.1 185.33 377.1 232.04 387.4 168.7 445.42 141.28 388.37 111.91 380.22 48.26 334.65 93.44 271.6 81.53 300.5 138.82 269.68 195.11"/><path d="M286.16,240.4q8.2-1.43,16.25-2.91l15.9-3,15.58-3,15.38-2.84,1-.19.8.8q11.31,11.39,22.54,22.84L396.07,275l-5.86,1.8L394.9,245c1.58-10.57,3.09-21.16,4.74-31.73l.35-2.2,2.06-1,28.89-14c9.64-4.64,19.24-9.35,28.91-13.92l-.15,8.63-57.14-29.21-2.34-1.19-.33-2.61-8-63.68L400.09,97c-7.59,7.53-15.28,15-22.94,22.43l-23,22.4-1.64,1.6-2.19-.43c-10.5-2.05-21-4.23-31.45-6.36l-31.44-6.42,3.7-4.92L305,154.21q7,14.46,13.78,29l.48,1-.51.87-7.92,13.49-8.15,13.61-8.26,13.92C291.66,230.82,288.92,235.57,286.16,240.4Zm0,0c2.38-4.56,4.77-9.19,7.13-13.86l7.14-14.22,7.27-14.53,7.49-14.66,0,1.9Q307.54,170.9,300,156.72l-15-28.36-3.25-6.13,7,1.21,31.62,5.5c10.53,1.84,21.08,3.64,31.6,5.56l-3.84,1.17,22.59-22.79c7.53-7.59,15-15.22,22.62-22.75l6.9-6.85,1.27,9.66,8.33,63.63-2.67-3.81,57,29.53,8.63,4.48L464,190.92c-9.67,4.57-19.41,9-29.11,13.5l-29.13,13.46,2.41-3.2c-1.78,10.55-3.7,21.07-5.56,31.6L397,277.88l-1.23,6.92-4.64-5.13-21.53-23.79Q358.78,244,348.1,232l1.79.61-16.33,2.05-16.13,1.87-15.81,1.87C296.42,239,291.26,239.71,286.16,240.4Z" transform="translate(-16.48 -45.29)"/></g></g></svg>