<svg id="Emoji" xmlns="http://www.w3.org/2000/svg" viewBox="0 0 413.5 407.5"><defs><style>.cls-1{fill:#fcea2b;}.cls-2{fill:none;stroke:#000;stroke-linecap:round;stroke-linejoin:round;stroke-width:7px;}</style></defs><g id="Relleno"><path class="cls-1" d="M260,70C158,70,75,153,75,255s83,185,185,185,185-83,185-185S362,70,260,70Z" transform="translate(-39.51 -45.29)"/></g><g id="Contorno"><path d="M248.76,45.3a208.16,208.16,0,0,1,76.62,15.25,205.05,205.05,0,0,1,110.94,107.3,199.55,199.55,0,0,1,12.23,38,204.28,204.28,0,0,1-54.2,185.33,206.22,206.22,0,0,1-145.59,61.65,207.5,207.5,0,0,1-174.2-90.84,202.76,202.76,0,0,1-31.35-75.52,211.85,211.85,0,0,1-3.7-40.88A199.3,199.3,0,0,1,57,166.1a201.63,201.63,0,0,1,47.12-65.23,209.77,209.77,0,0,1,67.47-41.71A212.18,212.18,0,0,1,248.76,45.3Zm0,2a187.64,187.64,0,0,0-75.31,16.42A191.57,191.57,0,0,0,140.17,83a193.81,193.81,0,0,0-28.52,25.42,197.92,197.92,0,0,0-39.3,64,200.83,200.83,0,0,0-12.84,73.07,195.07,195.07,0,0,0,55.36,133.89,190.43,190.43,0,0,0,61,42,187.38,187.38,0,0,0,35.61,11.28A192.93,192.93,0,0,0,443,245.54,195.95,195.95,0,0,0,358.66,81.05a193.31,193.31,0,0,0-34-18.71A191,191,0,0,0,248.76,47.3Z" transform="translate(-39.51 -45.29)"/></g><g id="CaraBien"><path id="Boca_Feliz" class="cls-2" d="M313.06,320.6s-16.22,22.45-52.2,21.85c-39.8-.66-54.7-24.86-54.7-24.86" transform="translate(-39.51 -45.29)"/><g id="OjosHappy"><g id="ojo02"><path d="M287.77,234.31a18.8,18.8,0,0,1,3.43-6.47,14.81,14.81,0,0,1,1.18-1.44c.42-.46.83-.93,1.26-1.39.91-.83,1.81-1.72,2.79-2.5a45.69,45.69,0,0,1,13-7.29,63.58,63.58,0,0,1,7.1-2.25c1.2-.3,2.41-.54,3.62-.78s2.43-.51,3.64-.66,2.44-.29,3.66-.42,2.44-.31,3.66-.34c2.43-.08,4.87-.21,7.31-.2l7.27.3c2.43.26,4.87.54,7.29.86s4.84.92,7.23,1.49l3.58,1.06,1.77.56c.59.21,1.17.46,1.75.69,1.17.46,2.32.94,3.46,1.44s2.24,1.17,3.33,1.77a37.16,37.16,0,0,1,6.16,4.41,27.12,27.12,0,0,1,2.68,2.68,15.31,15.31,0,0,1,1.18,1.48,14.83,14.83,0,0,1,1.08,1.55,15.21,15.21,0,0,1,2.51,6.92,14.71,14.71,0,0,0-2.11-2.79l-1.21-1.21-1.29-1.09a30.86,30.86,0,0,0-5.63-3.5,27,27,0,0,0-3-1.34l-1.53-.59a10.11,10.11,0,0,0-1.55-.53c-1.07-.3-2.11-.64-3.15-1s-2.17-.46-3.23-.73c-.54-.12-1.06-.26-1.61-.36l-1.65-.26-3.27-.56c-2.22-.21-4.43-.51-6.65-.72l-6.72-.41-6.79-.16c-9,0-18,.3-26.65,2.16A58.44,58.44,0,0,0,299,226.65c-1,.42-2,1-3,1.46l-1.45.85a16.56,16.56,0,0,0-1.45.89A25.79,25.79,0,0,0,287.77,234.31Z" transform="translate(-39.51 -45.29)"/></g><g id="ojo01"><path d="M232.72,234.43a25.53,25.53,0,0,0-5.33-4.46,15,15,0,0,0-1.44-.89l-1.46-.85c-1-.48-2-1-3-1.46a58.68,58.68,0,0,0-12.67-3.93c-8.64-1.85-17.63-2.2-26.65-2.15l-6.78.16-6.73.41c-2.22.21-4.42.51-6.65.72l-3.27.56-1.65.25c-.54.11-1.07.25-1.6.37-1.07.27-2.16.48-3.24.73s-2.08.66-3.14,1a11,11,0,0,0-1.56.54L146,226a26.08,26.08,0,0,0-3,1.34,30.52,30.52,0,0,0-5.63,3.5l-1.3,1.09-1.21,1.21a15.1,15.1,0,0,0-2.1,2.79,15,15,0,0,1,2.51-6.92,13.76,13.76,0,0,1,1.07-1.55,17,17,0,0,1,1.18-1.48,27.12,27.12,0,0,1,2.68-2.68,38,38,0,0,1,6.16-4.41c1.1-.61,2.22-1.18,3.34-1.77s2.29-1,3.46-1.44c.58-.23,1.16-.48,1.74-.69l1.78-.56,3.57-1.06c2.39-.57,4.82-1.05,7.24-1.49s4.85-.6,7.28-.86l7.28-.3c2.43,0,4.88.12,7.31.2,1.22,0,2.44.21,3.66.34s2.44.26,3.65.42,2.43.45,3.65.66,2.41.47,3.62.77a66.44,66.44,0,0,1,7.1,2.25,46.09,46.09,0,0,1,13,7.3c1,.77,1.88,1.67,2.78,2.5.44.46.85.93,1.27,1.39A13.7,13.7,0,0,1,229.3,228,18.6,18.6,0,0,1,232.72,234.43Z" transform="translate(-39.51 -45.29)"/></g></g><g id="Cejas"><path id="ceja02" class="cls-2" d="M112,204s2.78-27.56,34.21-45.08C181,139.53,206,153,206,153" transform="translate(-39.51 -45.29)"/><path id="ceja01" class="cls-2" d="M394.74,204.27s-2.78-27.56-34.21-45.08c-34.77-19.39-59.79-5.92-59.79-5.92" transform="translate(-39.51 -45.29)"/></g></g></svg>