<svg id="Emoji" xmlns="http://www.w3.org/2000/svg" viewBox="0 0 413.5 407.5"><defs><style>.cls-1{fill:gray;}.cls-2{fill:#fff;}</style></defs><g id="Relleno"><path class="cls-1" d="M260,70C158,70,75,153,75,255s83,185,185,185,185-83,185-185S362,70,260,70Z" transform="translate(-39.51 -45.29)"/></g><g id="Contorno"><path d="M248.76,45.3a208.16,208.16,0,0,1,76.62,15.25,205.05,205.05,0,0,1,110.94,107.3,199.55,199.55,0,0,1,12.23,38,204.28,204.28,0,0,1-54.2,185.33,206.22,206.22,0,0,1-145.59,61.65,207.5,207.5,0,0,1-174.2-90.84,202.76,202.76,0,0,1-31.35-75.52,211.85,211.85,0,0,1-3.7-40.88A199.3,199.3,0,0,1,57,166.1a201.63,201.63,0,0,1,47.12-65.23,209.77,209.77,0,0,1,67.47-41.71A212.18,212.18,0,0,1,248.76,45.3Zm0,2a187.64,187.64,0,0,0-75.31,16.42A191.57,191.57,0,0,0,140.17,83a193.81,193.81,0,0,0-28.52,25.42,197.92,197.92,0,0,0-39.3,64,200.83,200.83,0,0,0-12.84,73.07,195.07,195.07,0,0,0,55.36,133.89,190.43,190.43,0,0,0,61,42,187.38,187.38,0,0,0,35.61,11.28A192.93,192.93,0,0,0,443,245.54,195.95,195.95,0,0,0,358.66,81.05a193.31,193.31,0,0,0-34-18.71A191,191,0,0,0,248.76,47.3Z" transform="translate(-39.51 -45.29)"/></g><g id="CaraNormal"><path id="Ojo02" d="M199.35,198.44a33.78,33.78,0,1,1-33.77-33.77,33.79,33.79,0,0,1,33.77,33.77" transform="translate(-39.51 -45.29)"/><path id="Ojo01" d="M366,198.44a33.78,33.78,0,1,1-33.77-33.77A33.79,33.79,0,0,1,366,198.44" transform="translate(-39.51 -45.29)"/><g id="Brillos"><g id="Brillo02"><circle class="cls-2" cx="148.99" cy="142.21" r="9.5"/><circle class="cls-2" cx="142.99" cy="148.21" r="6.5"/><circle class="cls-2" cx="140.99" cy="137.21" r="4.5"/></g><g id="Brillo01"><circle class="cls-2" cx="315.99" cy="142.21" r="9.5"/><circle class="cls-2" cx="309.99" cy="148.21" r="6.5"/><circle class="cls-2" cx="307.99" cy="137.21" r="4.5"/></g></g></g></svg>