<?xml version="1.0" encoding="utf-8"?>
<!-- Generator: Adobe Illustrator 24.1.1, SVG Export Plug-In . SVG Version: 6.00 Build 0)  -->
<svg version="1.1" id="Capa_5" xmlns="http://www.w3.org/2000/svg" xmlns:xlink="http://www.w3.org/1999/xlink" x="0px" y="0px"
	 viewBox="0 0 1366 768" style="enable-background:new 0 0 1366 768;" xml:space="preserve">
<style type="text/css">
	.st0{fill:#9E005D;}
	.st1{display:none;}
	.st2{display:inline;fill:#9E005D;}
	.st3{font-family:'Orbitron-Bold';}
	.st4{font-size:60px;}
</style>
<g id="Casa">
	<circle class="st0" cx="697.5" cy="356.9" r="67.4"/>
	<path class="st0" d="M896.2,546.3l-0.6-229.1L713.7,212.7c-10.4-6-23.2-5.9-33.5,0.1L498.8,318.1l0.6,229.1l198.7,114.1l31.9-18.5
		V538h38v82.7l11-6.4V511h38v81.3l12-7V478h38v85.2L896.2,546.3z M707.9,534.5c-4.3,8.5-16.5,8.5-20.7,0c0,0-84.2-150.5-84.1-177.9
		c0.2-51.3,41.8-93.5,93.2-94.2c52.8-0.7,95.8,41.9,95.8,94.5C792,384.2,707.9,534.5,707.9,534.5z"/>
	<path class="st0" d="M937,313.1L713.8,185.1c-10.4-6-23.2-5.9-33.5,0.1L458.1,314.2l-0.1-54.9l222.4-129.1c10.4-6,23.1-6,33.5-0.1
		l223,128L937,313.1z"/>
</g>
<g id="Barras">
	<polygon class="st0" points="768,620.7 768,661 730,661 730,642.8 	"/>
	<polygon class="st0" points="817,592.3 817,661 779,661 779,614.3 	"/>
	<polygon class="st0" points="867,563.2 867,661 829,661 829,585.3 	"/>
</g>
<g id="Catova" class="st1">
	<text transform="matrix(1 0 0 1 450.4029 105.9575)" class="st2 st3 st4">CATOVATECH</text>
	<text transform="matrix(1 0 0 1 19.5198 541.0574)" class="st0 st3 st4">HabitCADtech</text>
	<text transform="matrix(1 0 0 1 920.8491 464.0572)" class="st0 st3 st4">TechPredio</text>
	<text transform="matrix(1 0 0 1 921.1504 402.057)" class="st0 st3 st4">PredioCAD</text>
</g>
</svg>
